<?xml version="1.0" encoding="UTF-8"?>
<svg version="1.1" viewBox="0 0 2048 1457" width="607" height="432" xmlns="http://www.w3.org/2000/svg">
<path transform="translate(0)" d="m0 0h2048v1457h-2048z" fill="#FC924B"/>
<path transform="translate(634,379)" d="m0 0 27 3 60 8 25 3 2 2-9 3-19 5-41 14-36 12-34 12 2 2 16-5 47-16 27-8 18-6 10-4 23-7 5-2h6l2 4v3l4 2 13 13 10 13 8 11 10 17 17 28 20 34 2 5 7 11v7l-5 9-9 11-15 20-14 18-14 19-13 16-12 16-10 13-8 10-3 1-1-1-4-33-3-24-3-18-2-15-3-23-3-16-5-3-14-10-12-9-5-2-16-12-6-5-5-3-7-6-6-3v-2h-3l-5-5-12-9-5-2-12-9v-2h-3v-2l-4-1-8-7-6-4 1-5-2-5-8 11-1 2 2 1v18l-1 15-2 65-1 14v42l2-13v-14l3-48 3-80 5 1 6 5 5 2 2 3 3 1v2l6 2 2 4h3v2h3v2l4 1v2h3l1 2 3 1v2l6 2 5 5 3 1 3 3 8 6 3 1 1 2 4 2v2h3v2l6 2 2 4h3v2l6 2 10 9 14 9 12 9 1 1 5 38 7 53 6 43-2 1-9-2-4 1-34-3-63-7-15-3-7-7-11-14-13-18-1-4-7-8-6-9-5-9-15-24-11-18-10-16-11-18 2-4 5-7 5-10 13-17 8-11 14-18 24-32 10-14 9-11 10-14 4-5z" fill="#DFAFC9"/>
<path transform="translate(446,515)" d="m0 0h34l17 3 12 2 6 2 7 2 1 5-4 12-4 7-4 10-1 2h-2l-2 6-4 6-2 5h-2v3h-2l-1 4h-2l-1 4h-2v3l-2 1-1 3-4 3-3 5-12 13-7 7-8 7-18 14-19 12-12 7-9 3 2 5h2l5 7v2h2l9 12v2h2l2 4 3 3 4 5v2l3 1 1 3 3 3v2l3 1 1 3 2 1 1 3 4 4v2h2l2 4 2 1 1 3 7 7-1 3-11-1-2-1-29-1-2 16-2 27h-4l-5-6-1-3-3-2-1-3-4-3-3-5-4-6-4-4-4-5-3-5-5-5v-2l-3-1v-3l-3-1-1-3-3-2v132l2 8 4 2 5 4 3 1 4 4v5l-1 1h-53l-6-2v-4l3-3h4v-2l6-3 3-4 2-8 1-192h-2l-3-10-3-6-9-3-1-1v-7l3-1h31l-3-7-2-16-4-11-6-9-4-10-2-2-3-9-2-4 2-7-8-3 1-3 15-10 17-10 20-9 24-8 22-5 13-2z" fill="#FBBD99"/>
<path transform="translate(1634,706)" d="m0 0h21l11 3 11 7 9 7 5 5v2h2l2-10 3-8 4-4h24l9 3 1 4 1 22 1 101 6 4 9 2 1 1v38l-1 1h-15l-15-1-2-1v-2l-5-2-6-5-9-15-4-10v-2h-2v9l-6 12-14 14-13 5-5 2h-25l-14-3v-2l-8-1v-2l-6-1-11-7-5-4-5-6-3-2-4-7-4-4-3-7-2-6h-2l-4-12-3-13-1-9v-11l3-19 6-17h2l1-6 3-5h2l1-4h2l1-4 5-5 5-4 6-6h3v-2l5-1v-2l10-4 11-4z" fill="#FDFCFC"/>
<path transform="translate(671,699)" d="m0 0 7 1 25 2 8 1 38 2-1 8-12 6-2 2-1 4v93l2 22 2 12 2 5 2 7 6 10v2l6 2 2 6-3 3h-26l-18-2-12-3-10-5-5-6-2-1-2-5-2-3-2-11-4 3h-2l-1 4h-2l-2 4-5 5h-2l-1 3-4 3h-2l-1 3-16 6-11 3-6 2h-18l-15-4v-2l-6-2-9-6-5-9-3-5-2-11-1-17-1-77-5-9-2-2-10-3-1-7 5-2 12-1 18-5 11-3 22-12 7-5h3l1 133 3 11 5 5v2l9 2h8l10-4 10-7 4-7 5-6 2-9v-66l-1-54z" fill="#FDFCFB"/>
<path transform="translate(763,398)" d="m0 0 2 1v3l4 2 13 13 10 13 8 11 10 17 17 28 20 34 2 5 7 11v7l-5 9-9 11-15 20-14 18-14 19-13 16-12 16-10 13-8 10-3 1-1-1-4-33-3-24-3-18-2-15-3-23-3-16-1-2 6-31 11-54 4-21 1-1 1-10h2v-8l3-17z" fill="#C5A0B1"/>
<path transform="translate(1466,705)" d="m0 0h28l14 3 9 3 8 4v2l5 1v2l5 2 4 4 1 3 3 3 3 5 3 10v11l-2 7h-2l-2 5-5 6h-2l-1 3-8 2h-12l-9-2v-2l-4-1-7-10-3-5v-15l4-9 6-7 8-4v-4l-9-3v2l-13 2v2l-9 4-8 6-8 9-4 6-3 7-1 5h-2l-2 16-1 1v21l4 20 5 11 6 9 1 3 5 5 4 3 13 5 4 1h15l15-3v-2l6-4h3l2-4 8-8 6-9 1-1h5l1 5-7 14-4 4-2 5-4 5-8 7-4 5-4 3-13 5-3 2h-3v2l-14 4-14 1-16-2-11-3-15-6-12-8-6-5-5-6-5-4v-3l-3-1-8-14-5-12-4-17v-21l4-20 7-15h2l1-5 2-3h2l1-4h2l2-5 7-7 4-1v-2l4-1v-2h3v-2l7-4 16-6z" fill="#FDFBFA"/>
<path transform="translate(999,704)" d="m0 0h21l10 4 10 10 3 7 1 5v8l-2 7h-2l-2 5-4 6-5 2v2l-4 2-8 2h-8l-7-2v-2l-5-2-5-3-3-5v-2h-2l-5-10-1-1-9 1-5 5-3 7h-2l-3 11-4 14-1 1-3 23-2 5v59l3 4 3 5 11 7 2 5-2 2-47 1-46-1-3-1v-5l6-4h3v-2l4-2 1-3h2l2-9v-104l-2-7-9-7-6-2-1-7 5-2 24-4 17-5 5-3 5-2h3v-2l4-2h3v-2l9-6h3v42h2l1-6 4-6h2v-3h2l1-4h2l1-4 6-6 3-1 1-2h3v-2h3v-2l16-6z" fill="#FDFCFB"/>
<path transform="translate(817,636)" d="m0 0h3l1 2 1 9 3 13 3 19 2 13 1 13h22v9l-1 1h-21l1 101 1 2 2 23 3 21h2l5 10 5 5 4 3v6l-2 1h-29l-22-3-12-5-6-4-6-7-3-7-1-6-1-18-1-109-3-7-7-5-8-3v-7l12-5 8-5 8-8 2-4h2l1-4h2l1-4 2-3h2v-3h2v-3h2v-3h2v-3h2v-3h2v-3l2-1 1-3h2l1-4h2l1-4h2l2-5z" fill="#FDFCFB"/>
<path transform="translate(729,549)" d="m0 0h3l5 38 7 53 6 43-2 1-9-2-4 1-34-3-63-7-15-3-7-7-11-14-13-18-1-4-2-3 15-8 11-6 25-13 19-10 18-10 44-24z" fill="#C5A0B1"/>
<path transform="translate(323,642)" d="m0 0h51l7 7 13 17 3 3v2h2l5 7v2h2l9 12v2h2l2 4 3 3 4 5v2l3 1 1 3 3 3v2l3 1 1 3 2 1 1 3 4 4v2h2l2 4 2 1 1 3 7 7-1 3-11-1-2-1-29-1-2 16-2 27h-4l-5-6-1-3-3-2-1-3-4-3-3-5-4-6-4-4-4-5-3-5-5-5v-2l-3-1v-3l-3-1-1-3-3-2v132l2 8 4 2 5 4 3 1 4 4v5l-1 1h-53l-6-2v-4l3-3h4v-2l6-3 3-4 2-8 1-192h-2l-3-10-3-6-9-3-1-1v-6z" fill="#FDFCFB"/>
<path transform="translate(1244,663)" d="m0 0h2l1 42h20l2 3v7l-1 1-17 1-4-1 1 115 3 17 5 20v2h2l4 6 6 5v6h-37l-17-3-12-5-8-8v-2h-2l-3-6-2-25-1-107-4-10-1-3-4-2-9-3-1-5 2-2 20-5 17-8h3v-2l5-1v-2h3v-2l6-4h2l1-3 4-2 5-5 7-8z" fill="#FDFCFB"/>
<path transform="translate(496,641)" d="m0 0h35l2 2-1 7-2 1h-6v2l-5 5-2 4-1 6v191l2 7 4 8 3 2 7 2 1 1v7h-46l-6-2-2-4-6-6-3-6-8-8-1-3-3-3-3-5-4-3-4-7-3-2-4-7-6-8-3-2-2-4-5-5-2-4-3-3 1-13 3-31 2-4 16 1 12 2 14 1 5 4 7 9v3l4 2 4 7 6 5-1-31v-59l-1-35-2-9-4-2-9-6v-6z" fill="#FDFBFA"/>
<path transform="translate(443,362)" d="m0 0 5 1 17 12 13 12 7 8 12 15 8 13 8 16 6 16 4 15 3 20v27l-2 5-6-1-23-6-12-4-17-9-12-8-13-11-8-7-10-11-11-15-9-16-6-16-3-10v-7l9 1v-2l13-9 7-7 5-3 7-6 6-4h2z" fill="#FBBD99"/>
<path transform="translate(757,395)" d="m0 0h6l-1 7-4 25h-2v10l-2 7-5 25-9 44-6 31h-4l-16-12-6-4-5-4-5-2-16-12-6-5-5-3-7-6-6-3v-2h-3l-5-5-12-9-5-2-12-9v-2h-3v-2l-4-1-8-7-6-4 1-4 18-6 13-4 45-15 21-6 21-7 10-4 23-7z" fill="#FDFDFC"/>
<path transform="translate(1360,706)" d="m0 0h3l1 30 1 125 1 11 4 2 8 3 4 5-1 4h-94l-1-5 2-4 9-4h2v-3h2l2-9v-105l-3-8-6-5-9-4v-6l18-2 9-3 18-5 14-7 11-7h3v-2z" fill="#FDFBFA"/>
<path transform="translate(634,379)" d="m0 0 27 3 60 8 25 3 2 2-9 3-19 5-41 14-36 12-34 12 1 2h-2v2h-7l-2-5-8 11-1 2 2 1v18l-1 15-2 65-1 14v42l2-3v16l-3 2-9-13-5-9-15-24-11-18-10-16-11-18 2-4 5-7 5-10 13-17 8-11 14-18 24-32 10-14 9-11 10-14 4-5z" fill="#B487A3"/>
<path transform="translate(1137,705)" d="m0 0h3l1 158 3 7 3 3 7 4 4 4-1 4h-95v-5l9-6 7-6 2-8v-105l-3-7-6-5v-2l-7-2-1-1v-5l1-1 23-4 16-4 10-5 8-2v-2l12-7z" fill="#FDFCFC"/>
<path transform="translate(848,539)" d="m0 0h8l-1 7-12 16-14 18-12 16-16 21-13 17-14 18-10 13-8 10-3 1-1-1-4-33-3-24-3-18-2-15-3-23-2-10v-5l2-1 56-4 44-2z" fill="#B487A3"/>
<path transform="translate(446,515)" d="m0 0h34l17 3 12 2 6 2 7 2 1 5-4 12-4 7-4 10-1 2h-2l-2 6-4 6-2 5h-2v3h-2l-1 4h-2l-1 4h-2v3l-2 1-1 3-4 3-3 5-13 12-4 3h-4l-9-11-4-5-10-17-7-11-6-10-4-9-7-18-1-6-4-1-5-2h-8l-12 3v-3l24-7 20-4z" fill="#FCE3D6"/>
<path transform="translate(1648,751)" d="m0 0h10l8 2 4 2v2h3l7 8 5 6 4 10 2 6v22l-2 6h-2l-1 7-1 2h-2l-2 5-5 5-2 3-11 6-1 1h-17l-14-7-7-11-3-7-2-11v-24l5-18 4-6 6-5 6-3z" fill="#FC934D"/>
<path transform="translate(483,395)" d="m0 0 3 1 13 17 10 17 7 16 6 19 3 16 1 9v27l-2 5-6-1-23-6-12-4-17-9-12-8-13-11-5-4-3-6 15-2 10-7 7-7 11-8 10-7 8-4 5-2 2-7v-6l-3-5-6-8-4-7-5-6z" fill="#FBD7C4"/>
<path transform="translate(420,518)" d="m0 0 4 1-3 1 13 1 10 5 4 6 5 17 8 13 10 16 7 6 2 4v12l2 1-16 15-3 2h-4l-9-11-4-5-10-17-7-11-6-10-4-9-7-18-1-6-4-1-5-2h-8l-12 3v-3l24-7z" fill="#FBD7C4"/>
<path transform="translate(321,560)" d="m0 0 1 2 7 3 1 3-2 6 3 4 3 9 4 9 6 10 4 8 2 11 1 9 2 7-34 1 1 8h-2l-1-8-3-2v-2l-5-2-4-7-1-5-2-6v-2l-2-1-6-17-1-12 9-11 14-11z" fill="#F49B6A"/>
<path transform="translate(1324,642)" d="m0 0h16l9 3 9 9v2h2l3 8v15l-3 8-2 1-2 5-5 3-3 3-8 3-13 1-10-3-7-5-3-5-3-3-3-8v-14l4-9h2l1-4 7-6z" fill="#FDFBFA"/>
<path transform="translate(1103,641)" d="m0 0h15l9 5 6 4 5 7 2 6v16l-3 8-9 9h-2v2l-10 3h-12l-9-2-5-3-9-10-3-9v-11l3-8 4-6 4-4h2v-2z" fill="#FDFCFB"/>
<path transform="translate(593,628)" d="m0 0 15 6 40 14 57 21 25 8 9 3v2l-4 1-34-3-63-7-15-3-7-7-11-14-13-18z" fill="#B487A3"/>
<path transform="translate(513,444)" d="m0 0 3 2 6 19 3 16 1 9v27l-2 5-6-1-23-6-12-4-17-9-9-6-1-3 2-1 12-1 14-8 15-12 9-5h2l2-12v-9z" fill="#FCE2D5"/>
<path transform="translate(599,439)" d="m0 0 2 4v2l3 1-3 1v3l9 6 5 5 3 1v2h3l5 5 8 6 5 2 16 12v2h3l1 2 8 4 6 6 5 3 17 13 4 3 7 3 6 5 17 12 6 4 4 23 2 16 5 33 5 43 2 14 5-3 10-13 12-16 14-18 5-6v3l-9 12-10 13-16 21-7 9-4 5-2 3-9-1-6-1 3-2 10 2-9-65-7-56-2-13-13-10-14-9-5-4-4-4-6-3v-2h-3l-2-3-6-3v-2h-3l-1-2-4-2v-2l-4-1-10-7v-2l-4-1-4-4-6-3v-2l-4-1v-2h-3l-1-2-3-1v-2h-3v-2h-3l-2-3-6-3v-2l-4-1-2-3-5-2-7-5-3-1v30l-2 50-3 48v17l-2 12-2-2v-42l1-14 2-65 2-33-3-1 6-8z" fill="#F49B6A"/>
<path transform="translate(1793,846)" d="m0 0 4 2 3 5 6 14v2h2v2l5 2 18 8-1 4-8 4-14 6-4 8-5 13-4 4-3-1-9-21-5-4-17-7-2-2 1-5 9-4 12-6 5-8 5-14z" fill="#C5A0B1"/>
<path transform="translate(414,348)" d="m0 0 9 2 17 8 5 4-1 1v6l-4 4-10 7-4 4-5 3-10 9-6 4h-2v2l-9-1v6h-1l-3-19 3-5 4-4 3-2-1-3-2-1-1-6 2-6 8-7 5-5z" fill="#F49A69"/>
<path transform="translate(473,516)" d="m0 0 19 1 17 3 6 2 7 2 1 5-4 12-4 7-4 10-1 2h-2l-2 6-7 10-1-2 1-13-2-10-6-9-4-10-11-12-3-2z" fill="#FDFCFB"/>
<path transform="translate(741,392)" d="m0 0 9 1 7 2-3 2-18 6-16 5-10 4-28 9-17 5-41 14-13 4-3-1-1-2 45-16 36-12 35-12 24-6-6-2z" fill="#F69D69"/>
<path transform="translate(599,439)" d="m0 0 2 4v2l3 1-7 1v3h-2v27l-2 48-1 43-1 22v8l-2 12-2-2v-42l1-14 2-65 2-33-3-1 6-8z" fill="#F49C6B"/>
<path transform="translate(599,446)" d="m0 0 2 1v3l9 6 5 5 3 1v2h3l5 5 8 6 5 2 16 12v2h3l1 2 8 4 6 6 5 3 17 13 7 5-3 1-10-6v-2h-3l-2-3-6-3v-2h-3l-1-2-4-2v-2l-4-1-10-7v-2l-4-1-4-4-6-3v-2l-4-1v-2h-3l-1-2-3-1v-2h-3v-2h-3l-2-3-6-3v-2l-4-1-2-3-5-2-7-5-3-1v30l-2 50-1 20h-1v-28l3-75h2v-3z" fill="#FAA774"/>
<path transform="translate(523,490)" d="m0 0 2 2v28l-1 2-6-1-23-6-5-2 1-3 8-2 13-2 5-4z" fill="#FDFDFC"/>
<path transform="translate(769,405)" d="m0 0 7 6 10 11 7 9 10 15 13 22 27 45 4 8-3-1-13-21-22-34-10-15-10-16-8-11-12-16z" fill="#B487A3"/>
<path transform="translate(673,419)" d="m0 0h6v2l-41 14-14 5-13 4-3-1-1-2 45-16 12-4h9z" fill="#FA9554"/>
<path transform="translate(1267,706)" d="m0 0 2 2v7l-1 1-17 1-4-1v104l-2-4v-100l1-1 20-1z" fill="#FBCBB0"/>
<path transform="translate(872,878)" d="m0 0 2 1-2 5h93l2-4 1 4-2 2-47 1-46-1-3-1v-5z" fill="#FBCEB6"/>
<path transform="translate(599,446)" d="m0 0 2 1v3l9 6-2 1 1 3-4-2-6-4-3-1v30l-2 50-1 20h-1v-28l3-75h2v-3z" fill="#FBBD99"/>
<path transform="translate(701,523)" d="m0 0 5 2 6 5 17 12 5 4-3 3-13-10-14-9-5-5z" fill="#F8AD82"/>
<path transform="translate(608,457)" d="m0 0 5 2 5 3v2h3l5 5 8 6 5 2 5 5 1 2-6-1-1-3h-3l-1-2-3-1v-2h-3v-2h-3l-2-3-6-3v-2l-4-1-5-5z" fill="#FB9C5E"/>
<path transform="translate(741,392)" d="m0 0 9 1 7 2-3 2-18 6-6-2-1 2-11 1 2-2 27-7-6-2z" fill="#F29E72"/>
<path transform="translate(761,407)" d="m0 0h1v7l-6 29-5 25h-1v-9l4-21 1-1 1-10h2v-8z" fill="#EEA381"/>
<path transform="translate(1286,878)" d="m0 0h2l-1 7 93 1v1h-94l-2-2 1-6z" fill="#FBBF9C"/>
<path transform="translate(659,652)" d="m0 0 9 2 37 13 15 5 3 3-9-2-39-14-16-6z" fill="#F49B6A"/>
<path transform="translate(668,501)" d="m0 0 4 1 6 4 17 13 7 5-3 1-10-6v-2h-3l-2-3-6-3v-2h-3l-1-2-4-2v-2h-2z" fill="#FA995B"/>
<path transform="translate(500,516)" d="m0 0 18 4 6 2 1-2-1 7-4-3-10-2-1-1-12-2z" fill="#F7AD83"/>
<path transform="translate(685,414)" d="m0 0m-3 1 7 1-1 3-9 2v-2l-5 1-1 2h-5l-1-2z" fill="#F69C68"/>
<path transform="translate(483,395)" d="m0 0 3 1 13 17 1 3-2 2-6-8-4-7-5-6z" fill="#FBD0B8"/>
<path transform="translate(730,401)" d="m0 0 4 2-14 5-6-1 1-3 9-2h5z" fill="#FB934F"/>
<path transform="translate(599,446)" d="m0 0 2 1v3l9 6-2 1 1 3-4-2-6-4-2-3v-4z" fill="#F8AF86"/>
<path transform="translate(624,435)" d="m0 0 3 1-2 1-1 3-13 4-3-1-1-2z" fill="#F8985E"/>
<path transform="translate(672,850)" d="m0 0 2 1-1 4v-2l-18 18-5 2 5-6 8-7 3-3 1-3z" fill="#FAC3A3"/>
<path transform="translate(720,537)" d="m0 0 5 2 6 5 3 2-3 3-12-9z" fill="#F9B690"/>
<path transform="translate(711,405)" d="m0 0 4 1 4 3-11 3-2-4z" fill="#F5A275"/>
<path transform="translate(1267,706)" d="m0 0 2 2v7l-1 1-17 1-5-1v-1l20-1z" fill="#FBD0B8"/>
<path transform="translate(1418,724)" d="m0 0 2 1-2 1zm-2 2 2 1-12 12-1-2 7-8zm-13 13 2 1-3 2z" fill="#FCE1D2"/>
<path transform="translate(693,411)" d="m0 0 2 3 3 2-9 2v-2l-3 1v-3z" fill="#F5A172"/>
<path transform="translate(600,440)" d="m0 0h9l1 3h-2v2h-7z" fill="#CC9CA1"/>
<path transform="translate(391,525)" d="m0 0 4 1-1 2-12 3v-3z" fill="#FBCEB5"/>
<path transform="translate(1505,728)" d="m0 0 2 1-11 11v-3l6-7z" fill="#FCDDCC"/>
<path transform="translate(411,771)" d="m0 0h1l-1 18h-4l-1-2h3z" fill="#FBCBB0"/>
<path transform="translate(500,516)" d="m0 0 10 2v2h-8l-5-1z" fill="#FAA976"/>
<path transform="translate(618,437)" d="m0 0m-3 1h3v2l-4 2-3 2-3-1-1-2z" fill="#ED996F"/>
</svg>
